PathFileType	3	(X/Y/Z)	D:\minhoCalibration\240510\subject4_KPNP\preferred\preferred07.trc
DataRate	CameraRate	NumFrames	NumMarkers	Units	OrigDataRate	OrigDataStartFrame	OrigNumFrames
200.0	200.0	15	10	mm	200.0	306	91	
Frame#	Time	Left_Ankle_Outer1			Left_Ankle_Inner1			Left_Knee_Outer1			Left_Knee_Inner1			Left_Wrist1			Right_Wrist1			Right_Knee_Inner1			Right_Knee_Outer1			Right_Ankle_Inner1			Right_Ankle_Outer1			
		X1	Y1	Z1	X2	Y2	Z2	X3	Y3	Z3	X4	Y4	Z4	X5	Y5	Z5	X6	Y6	Z6	X7	Y7	Z7	X8	Y8	Z8	X9	Y9	Z9	X10	Y10	Z10	
306	1.52	-480.34818	324.53827	1653.251	-433.12701	265.87259	1580.661	-698.05804	547.79742	1246.0424	-608.95142	504.61267	1196.9554	-546.47046	994.50238	1299.0791	-210.18895	892.66479	1333.8531	-334.57629	518.2041	1071.8594	-240.56755	514.89771	1131.1248	-458.97214	66.701836	1210.8824	-413.1124	76.337379	1242.848
307	1.525	-481.11084	335.5022	1629.5187	-433.32434	276.59338	1557.4752	-697.83545	558.16467	1222.3843	-607.11475	515.7428	1174.1227	-542.3349	1001.5979	1289.4542	-207.88596	895.30334	1335.501	-330.17953	518.73468	1072.71	-238.44225	515.60474	1135.0878	-458.01132	68.004807	1211.9042	-412.32043	77.172363	1244.3241
308	1.53	-482.47522	346.62952	1606.0912	-434.121	288.07645	1534.2473	-697.46252	569.21313	1198.4602	-605.92303	527.88824	1152.2235	-538.36157	1008.9659	1280.1505	-206.83116	897.48114	1337.7373	-326.03699	519.19482	1074.4062	-236.08836	516.51135	1139.2493	-456.47549	69.206383	1212.5945	-410.85828	78.166466	1245.2113
309	1.535	-484.57031	357.90552	1582.8304	-434.43085	300.4223	1511.6302	-696.54749	581.09607	1174.4661	-602.53088	540.31622	1128.9763	-534.12555	1016.6936	1270.783	-206.23759	899.80853	1340.1385	-322.293	519.84424	1076.2977	-233.97485	517.47534	1143.4576	-454.82065	70.556229	1213.3645	-409.27261	79.277725	1245.6217
310	1.54	-487.51315	369.47919	1560.1062	-435.21402	313.03632	1489.2321	-694.78448	593.51172	1150.4615	-599.67731	553.89661	1106.054	-529.56635	1024.2321	1261.858	-205.63284	902.47638	1342.6638	-318.87445	520.7677	1078.5331	-232.08803	518.84302	1147.7017	-453.09378	71.941406	1214.033	-407.85718	80.686729	1246.8484
311	1.545	-490.79654	381.34122	1537.4249	-437.2778	325.28369	1467.1467	-692.05298	606.40753	1126.4229	-596.09674	567.86029	1083.4614	-524.88934	1032.1204	1253.2466	-205.37079	905.16791	1344.968	-315.84933	522.02856	1080.8586	-230.28838	520.35419	1151.8121	-451.16611	73.166626	1214.6636	-405.34344	81.823616	1247.3363
312	1.55	-494.90164	393.67865	1514.9457	-439.93073	338.00159	1445.5482	-688.95074	620.18457	1102.0167	-590.81525	582.50928	1060.5021	-519.95087	1039.8877	1244.8746	-205.63751	908.396	1347.3944	-313.20706	523.18048	1083.3181	-228.48079	522.02911	1155.6765	-449.08032	74.82843	1215.588	-403.67636	83.190651	1248.2878
313	1.555	-499.8013	406.38205	1492.7694	-442.3718	351.32242	1424.5479	-684.77765	634.56335	1077.7416	-585.86902	597.55444	1038.4186	-514.67328	1047.6703	1236.7463	-205.84166	911.13422	1349.3636	-310.22021	524.67401	1085.4434	-226.79112	524.02911	1159.3729	-446.9682	76.716904	1216.5699	-401.53424	84.673004	1249.2588
314	1.56	-505.66156	419.44574	1470.9391	-446.80157	364.56873	1403.7125	-680.08496	649.93329	1053.4265	-579.28552	613.56079	1016.3358	-509.38202	1055.5519	1229.0248	-207.06956	913.84637	1352.7418	-307.59406	526.32941	1087.6196	-224.94472	526.19666	1162.9698	-444.94016	78.731964	1217.3743	-399.99951	86.30069	1250.5112
315	1.565	-512.3689	432.89441	1449.2358	-451.40775	378.19446	1383.5753	-674.07147	665.72986	1029.1873	-571.51166	629.61768	994.40015	-504.06766	1063.3842	1221.6299	-206.49596	916.71234	1354.1187	-304.3605	528.32349	1088.9745	-222.88036	528.39551	1166.2728	-443.08807	80.887505	1217.863	-398.37024	87.794678	1251.0417
316	1.57	-519.8855	446.75583	1427.5854	-456.54428	392.2403	1363.9479	-666.67163	682.15955	1005.4738	-563.0484	646.23248	973.15051	-498.05777	1071.1025	1214.656	-209.56369	919.44006	1358.1748	-301.74594	530.04523	1091.4645	-220.88033	530.54126	1169.2927	-441.46002	83.161377	1217.9774	-397.52493	89.577995	1251.6962
317	1.575	-528.40662	460.83768	1406.256	-462.77499	406.10663	1344.8065	-658.61871	699.5506	981.73096	-553.78625	663.28577	952.75104	-492.20291	1078.7805	1207.8481	-210.75546	922.21234	1360.9749	-298.67883	532.11523	1093.3705	-218.48686	532.86377	1172.3862	-440.38773	85.545677	1217.8818	-396.04965	91.713661	1252.1526
318	1.58	-537.79218	475.5405	1385.525	-470.01953	420.84052	1326.2666	-648.77325	717.32129	958.43634	-543.00861	680.6272	932.66132	-486.11725	1086.368	1201.2898	-212.519	924.7713	1363.657	-295.18927	533.77527	1094.8348	-216.13518	534.98096	1175.3059	-439.56909	88.202469	1217.2574	-395.27121	93.68914	1251.63
319	1.585	-547.75653	490.64484	1364.1826	-478.31296	435.49588	1308.2291	-637.09113	735.3725	935.82373	-531.91693	697.59821	913.91296	-479.92404	1093.7969	1195.0679	-214.74248	926.72137	1366.9116	-291.58081	535.6319	1096.2075	-213.93593	537.13678	1178.2698	-438.7023	90.697235	1216.2323	-395.14948	95.92202	1251.7157
320	1.59	-558.62476	506.34396	1343.4517	-486.8056	451.2009	1290.5244	-624.67468	754.45001	913.62982	-518.18933	715.8822	895.26917	-473.53809	1101.1311	1189.1555	-216.62526	929.00165	1369.5944	-287.02301	537.53223	1096.8083	-211.32816	539.11688	1181.3949	-438.80225	93.694862	1215.418	-395.07837	97.999344	1250.8507
